<svg width="22" height="21" viewBox="0 0 22 21" fill="none" xmlns="http://www.w3.org/2000/svg">
<mask id="maskSlack" mask-type="alpha" maskUnits="userSpaceOnUse" x="0" y="0" width="21" height="21">
<path fill-rule="evenodd" clip-rule="evenodd" d="M7.85608 0C6.67163 0.000873744 5.71304 0.960245 5.71391 2.14242C5.71304 3.3246 6.6725 4.28397 7.85695 4.28484H10V2.14329C10.0009 0.961118 9.04141 0.00174749 7.85608 0C7.85696 0 7.85696 0 7.85608 0ZM7.85608 5.71429H2.14305C0.958594 5.71516 -0.000873034 6.67453 2.39243e-06 7.85671C-0.00174846 9.03888 0.957719 9.99825 2.14217 10H7.85608C9.04053 9.99913 10 9.03975 9.99912 7.85758C10 6.67453 9.04053 5.71516 7.85608 5.71429Z" fill="black"/>
<path fill-rule="evenodd" clip-rule="evenodd" d="M21 7.85671C21.0009 6.67453 20.0413 5.71516 18.8568 5.71429C17.6722 5.71516 16.7127 6.67453 16.7135 7.85671V10H18.8568C20.0413 9.99913 21.0009 9.03976 21 7.85671ZM15.2856 7.85671V2.14242C15.2865 0.961118 14.3278 0.00174749 13.1432 0C11.9587 0.000873744 10.9991 0.960245 11 2.14242V7.85671C10.9983 9.03888 11.9578 9.99825 13.1424 10C14.3269 9.99913 15.2865 9.03976 15.2856 7.85671Z" fill="black"/>
<path fill-rule="evenodd" clip-rule="evenodd" d="M13.143 21C14.3275 20.9991 15.287 20.0398 15.2861 18.8578C15.287 17.6757 14.3275 16.7164 13.143 16.7155H11V18.8578C10.9991 20.039 11.9586 20.9983 13.143 21ZM13.143 15.2853H18.857C20.0414 15.2845 21.0009 14.3252 21 13.1431C21.0017 11.961 20.0423 11.0017 18.8578 11H13.1439C11.9595 11.0009 11 11.9602 11.0009 13.1422C11 14.3252 11.9586 15.2845 13.143 15.2853Z" fill="black"/>
<path fill-rule="evenodd" clip-rule="evenodd" d="M5.98637e-07 13.1424C-0.000874905 14.3246 0.958676 15.284 2.14323 15.2848C3.32779 15.284 4.28734 14.3246 4.28646 13.1424V11H2.14323C0.958676 11.0009 -0.000874905 11.9602 5.98637e-07 13.1424ZM5.71441 13.1424V18.8567C5.71266 20.0389 6.67221 20.9983 7.85677 21C9.04132 20.9991 10.0009 20.0398 10 18.8576V13.1442C10.0017 11.962 9.0422 11.0026 7.85764 11.0009C6.67221 11.0009 5.71353 11.9602 5.71441 13.1424Z" fill="black"/>
</mask>
<g mask="url(#maskSlack)">
<rect width="22" height="21" fill="#242748"/>
</g>
</svg>
